<svg width="80" height="13" viewBox="0 0 80 13" fill="none" xmlns="http://www.w3.org/2000/svg">
<path d="M1.95595 10V3.64H0.0959473V1.744H6.61195V3.64H4.75195V10H1.95595Z" fill="white"/>
<path d="M9.52307 10.096C8.98707 10.096 8.55107 10 8.21507 9.808C7.88707 9.616 7.64707 9.356 7.49507 9.028C7.34307 8.7 7.26707 8.332 7.26707 7.924V3.988H9.79907V7.576C9.79907 7.76 9.85107 7.904 9.95507 8.008C10.0671 8.104 10.1991 8.152 10.3511 8.152C10.5111 8.152 10.6751 8.104 10.8431 8.008L10.9751 9.676C10.7991 9.812 10.5711 9.916 10.2911 9.988C10.0111 10.06 9.75507 10.096 9.52307 10.096ZM8.53907 3.328C8.17107 3.328 7.85507 3.212 7.59107 2.98C7.32707 2.74 7.19507 2.448 7.19507 2.104C7.19507 1.864 7.25907 1.656 7.38707 1.48C7.51507 1.296 7.68307 1.152 7.89107 1.048C8.09907 0.943998 8.31507 0.891998 8.53907 0.891998C8.78707 0.891998 9.01107 0.947998 9.21107 1.06C9.41907 1.172 9.58307 1.32 9.70307 1.504C9.83107 1.688 9.89507 1.888 9.89507 2.104C9.89507 2.344 9.82707 2.556 9.69107 2.74C9.56307 2.924 9.39507 3.068 9.18707 3.172C8.98707 3.276 8.77107 3.328 8.53907 3.328Z" fill="white"/>
<path d="M11.5921 10V3.988H14.0881V5.296C14.2721 4.848 14.5441 4.504 14.9041 4.264C15.2721 4.024 15.7081 3.904 16.2121 3.904C16.9961 3.904 17.6041 4.176 18.0361 4.72C18.4681 5.256 18.6841 6.016 18.6841 7V10H16.1521V6.868C16.1521 6.156 15.8641 5.8 15.2881 5.8C14.9441 5.8 14.6641 5.928 14.4481 6.184C14.2321 6.432 14.1241 6.768 14.1241 7.192V10H11.5921Z" fill="white"/>
<path d="M22.9278 12.34C22.6238 12.34 22.3398 12.32 22.0758 12.28C21.8118 12.24 21.6038 12.192 21.4518 12.136L21.6438 10.396C21.7878 10.428 21.9438 10.452 22.1118 10.468C22.2798 10.492 22.4438 10.504 22.6038 10.504C23.1398 10.504 23.5238 10.392 23.7558 10.168C23.9958 9.944 24.1158 9.6 24.1158 9.136V8.452C23.9238 8.94 23.6518 9.296 23.2998 9.52C22.9478 9.736 22.5318 9.844 22.0518 9.844C21.3078 9.844 20.7318 9.576 20.3238 9.04C19.9158 8.496 19.7118 7.732 19.7118 6.748V3.988H22.2438V6.88C22.2438 7.592 22.4958 7.948 22.9998 7.948C23.3118 7.948 23.5598 7.82 23.7438 7.564C23.9358 7.308 24.0318 6.972 24.0318 6.556V3.988H26.5638V8.596C26.5638 9.876 26.2478 10.82 25.6158 11.428C24.9838 12.036 24.0878 12.34 22.9278 12.34Z" fill="white"/>
<path d="M30.0623 10V1.744H32.5583L34.6223 5.752L36.6383 1.744H39.1343V10H36.6383V5.68L35.1143 8.56H34.0943L32.5583 5.68V10H30.0623Z" fill="white"/>
<path d="M43.4942 10.096C42.8142 10.096 42.2142 9.964 41.6942 9.7C41.1742 9.436 40.7662 9.072 40.4702 8.608C40.1822 8.136 40.0382 7.596 40.0382 6.988C40.0382 6.364 40.1862 5.824 40.4822 5.368C40.7862 4.904 41.1982 4.544 41.7182 4.288C42.2382 4.032 42.8342 3.904 43.5062 3.904C44.1942 3.904 44.7982 4.036 45.3182 4.3C45.8382 4.556 46.2422 4.916 46.5302 5.38C46.8182 5.836 46.9622 6.372 46.9622 6.988C46.9622 7.604 46.8142 8.148 46.5182 8.62C46.2302 9.084 45.8262 9.448 45.3062 9.712C44.7862 9.968 44.1822 10.096 43.4942 10.096ZM43.5182 8.296C43.8462 8.296 44.1142 8.176 44.3222 7.936C44.5382 7.688 44.6462 7.372 44.6462 6.988C44.6462 6.604 44.5422 6.292 44.3342 6.052C44.1262 5.804 43.8622 5.68 43.5422 5.68C43.1982 5.68 42.9182 5.804 42.7022 6.052C42.4942 6.292 42.3902 6.604 42.3902 6.988C42.3902 7.372 42.4942 7.688 42.7022 7.936C42.9182 8.176 43.1902 8.296 43.5182 8.296Z" fill="white"/>
<path d="M50.5137 10.096C49.9617 10.096 49.4617 9.964 49.0137 9.7C48.5657 9.428 48.2097 9.056 47.9457 8.584C47.6897 8.112 47.5617 7.572 47.5617 6.964C47.5617 6.356 47.6897 5.824 47.9457 5.368C48.2097 4.912 48.5657 4.556 49.0137 4.3C49.4617 4.036 49.9617 3.904 50.5137 3.904C50.9057 3.904 51.2817 4.012 51.6417 4.228C52.0097 4.436 52.2817 4.776 52.4577 5.248V2.092L54.9897 1.72V10H52.4817V8.884C52.2897 9.276 52.0337 9.576 51.7137 9.784C51.3937 9.992 50.9937 10.096 50.5137 10.096ZM51.2937 8.2C51.6217 8.2 51.9017 8.084 52.1337 7.852C52.3657 7.612 52.4817 7.32 52.4817 6.976C52.4817 6.632 52.3657 6.352 52.1337 6.136C51.9017 5.912 51.6217 5.8 51.2937 5.8C50.9497 5.8 50.6617 5.916 50.4297 6.148C50.1977 6.38 50.0817 6.664 50.0817 7C50.0817 7.336 50.1977 7.62 50.4297 7.852C50.6617 8.084 50.9497 8.2 51.2937 8.2Z" fill="white"/>
<path d="M59.3737 10.096C58.3577 10.096 57.5617 9.84 56.9857 9.328C56.4177 8.808 56.1337 8.092 56.1337 7.18V3.988H58.6057V7.288C58.6057 7.608 58.6737 7.844 58.8097 7.996C58.9537 8.148 59.1457 8.224 59.3857 8.224C59.6177 8.224 59.7977 8.148 59.9257 7.996C60.0617 7.844 60.1297 7.608 60.1297 7.288V3.988H62.5537V7.18C62.5537 8.1 62.2737 8.816 61.7137 9.328C61.1617 9.84 60.3817 10.096 59.3737 10.096Z" fill="white"/>
<path d="M66.0577 10.096C65.4897 10.096 65.0257 10 64.6657 9.808C64.3137 9.616 64.0577 9.356 63.8977 9.028C63.7377 8.7 63.6577 8.332 63.6577 7.924V1.852L66.1897 1.48V7.576C66.1897 7.76 66.2497 7.904 66.3697 8.008C66.4897 8.104 66.6457 8.152 66.8377 8.152C67.0297 8.152 67.2217 8.104 67.4137 8.008L67.5937 9.676C67.4017 9.812 67.1577 9.916 66.8617 9.988C66.5657 10.06 66.2977 10.096 66.0577 10.096Z" fill="white"/>
<path d="M71.8671 8.416C72.0991 8.416 72.3431 8.392 72.5991 8.344C72.8631 8.296 73.1311 8.208 73.4031 8.08L73.6911 9.628C73.3951 9.78 73.0711 9.896 72.7191 9.976C72.3751 10.056 71.9791 10.096 71.5311 10.096C70.7231 10.096 70.0431 9.964 69.4911 9.7C68.9471 9.436 68.5351 9.072 68.2551 8.608C67.9751 8.144 67.8351 7.608 67.8351 7C67.8351 6.376 67.9831 5.832 68.2791 5.368C68.5831 4.904 68.9871 4.544 69.4911 4.288C69.9951 4.032 70.5511 3.904 71.1591 3.904C72.0631 3.904 72.7551 4.188 73.2351 4.756C73.7151 5.316 73.9551 6.116 73.9551 7.156L70.3791 7.612C70.6431 8.148 71.1391 8.416 71.8671 8.416ZM70.1871 6.508L72.0711 6.112C72.0391 5.856 71.9511 5.668 71.8071 5.548C71.6631 5.42 71.4831 5.356 71.2671 5.356C70.9471 5.356 70.6911 5.468 70.4991 5.692C70.3151 5.908 70.2111 6.18 70.1871 6.508Z" fill="white"/>
<path d="M76.7234 10.096C76.3634 10.096 75.9994 10.06 75.6314 9.988C75.2634 9.916 74.9314 9.816 74.6354 9.688L74.9834 8.176C75.1674 8.272 75.4194 8.356 75.7394 8.428C76.0594 8.492 76.3434 8.524 76.5914 8.524C76.9914 8.524 77.1914 8.416 77.1914 8.2C77.1914 8.096 77.1274 8.02 76.9994 7.972C76.8794 7.924 76.7194 7.884 76.5194 7.852C76.3274 7.812 76.1194 7.764 75.8954 7.708C75.6714 7.644 75.4594 7.552 75.2594 7.432C75.0674 7.304 74.9074 7.124 74.7794 6.892C74.6594 6.66 74.5993 6.356 74.5993 5.98C74.5993 5.348 74.8474 4.844 75.3434 4.468C75.8474 4.092 76.5354 3.904 77.4074 3.904C77.7434 3.904 78.0554 3.928 78.3434 3.976C78.6394 4.024 78.9194 4.124 79.1834 4.276L78.9314 5.74C78.5074 5.564 78.0633 5.476 77.5993 5.476C77.3033 5.476 77.0874 5.5 76.9514 5.548C76.8234 5.596 76.7594 5.676 76.7594 5.788C76.7594 5.876 76.8234 5.944 76.9514 5.992C77.0794 6.04 77.2434 6.088 77.4434 6.136C77.6514 6.176 77.8674 6.236 78.0914 6.316C78.3154 6.388 78.5274 6.492 78.7274 6.628C78.9354 6.764 79.1034 6.948 79.2314 7.18C79.3594 7.404 79.4234 7.696 79.4234 8.056C79.4234 8.696 79.1874 9.196 78.7154 9.556C78.2434 9.916 77.5794 10.096 76.7234 10.096Z" fill="white"/>
</svg>
